<svg width="395" height="398" viewBox="0 0 395 398" fill="none" xmlns="http://www.w3.org/2000/svg">
<g filter="url(#filter0_d)">
<path fill-rule="evenodd" clip-rule="evenodd" d="M150.513 106.607C173.738 106.537 195.458 102.546 218.67 104.824C245.203 107.427 273.624 106.081 295.568 120.841C318.813 136.475 330.948 161.975 340.52 186.779C350.974 213.866 360.339 242.567 353.043 269.771C345.437 298.132 327.994 326.37 299.692 339.023C272.261 351.286 238.998 330.943 208.372 334.449C173.936 338.391 141.175 378.297 111.114 360.612C80.2898 342.479 103.37 295.842 89.8299 264.711C79.0039 239.82 48.7368 225.176 41.0132 199.438C31.6383 168.197 17.0166 126.544 42.0096 105.356C68.5642 82.8435 113.622 106.718 150.513 106.607Z" fill="#EF5858"/>
</g>
<path fill-rule="evenodd" clip-rule="evenodd" d="M146.479 92.3882C169.159 90.1525 190.15 84.0559 212.95 84.2168C239.012 84.4008 266.696 80.379 288.959 93.3941C312.542 107.181 325.829 132.07 336.573 156.487C348.307 183.152 359.067 211.565 353.471 240.004C347.637 269.651 332.187 300.09 305.256 315.638C279.152 330.708 245.519 313.049 215.803 319.481C182.39 326.713 152.635 370.486 122.279 355.242C91.1522 339.611 111.073 289.873 96.0975 259.369C84.1238 234.98 53.7375 222.858 44.7464 197.315C33.8329 166.311 17.2094 125.172 40.4295 101.222C65.1004 75.7768 110.452 95.9393 146.479 92.3882Z" fill="#FFDE69"/>
<path d="M174.511 170.073C174.511 170.073 173.265 172.139 174.511 173.857H148.246V170.073H174.511Z" fill="#D0F3F1"/>
<path d="M174.942 173.987C174.942 174.074 174.897 174.161 174.829 174.226C174.761 174.292 174.67 174.335 174.579 174.335H135.51C134.807 174.335 134.218 173.791 134.218 173.096V170.964C134.218 170.29 134.784 169.724 135.51 169.724H174.579C174.783 169.724 174.942 169.877 174.942 170.072C174.942 170.268 174.783 170.42 174.579 170.42H150.308C149.832 170.42 149.447 170.79 149.447 171.247V172.835C149.447 173.291 149.832 173.661 150.308 173.661H174.579C174.783 173.639 174.942 173.791 174.942 173.987Z" fill="#EE504F"/>
<path d="M174.942 173.922C174.965 174.031 174.919 174.161 174.851 174.226C174.783 174.292 174.693 174.335 174.602 174.335H150.104C149.288 174.335 148.631 173.704 148.631 172.922V171.138C148.631 170.355 149.288 169.724 150.104 169.724H174.602C174.783 169.724 174.942 169.855 174.965 170.029C174.987 170.225 174.829 170.399 174.602 170.399H150.331C149.855 170.399 149.47 170.768 149.47 171.225V172.813C149.47 173.269 149.855 173.639 150.331 173.639H174.602C174.738 173.639 174.897 173.748 174.942 173.922Z" fill="#D34848"/>
<path d="M174.353 181.73C174.353 181.73 173.061 184.884 174.353 187.646H154.614V181.73H174.353Z" fill="#D0F3F1"/>
<path d="M175.055 187.733C175.055 187.863 175.01 187.994 174.919 188.081C174.829 188.168 174.715 188.211 174.579 188.211H132.903C131.816 188.211 130.909 187.363 130.909 186.297V182.991C130.909 181.947 131.793 181.077 132.903 181.077H174.579C174.829 181.077 175.055 181.273 175.055 181.512C175.055 181.773 174.851 181.969 174.602 181.969H156.903C156.019 181.969 155.294 182.665 155.294 183.513V185.71C155.294 186.558 156.019 187.254 156.903 187.254H174.579C174.829 187.32 175.055 187.494 175.055 187.733Z" fill="#197A83"/>
<path d="M175.055 187.733C175.055 187.863 175.01 187.994 174.919 188.081C174.829 188.168 174.715 188.211 174.579 188.211H156.472C155.248 188.211 154.251 187.254 154.251 186.08V183.231C154.251 182.056 155.248 181.099 156.472 181.099H174.579C174.829 181.099 175.055 181.295 175.055 181.534C175.055 181.795 174.851 181.991 174.602 181.991H156.903C156.019 181.991 155.294 182.687 155.294 183.535V185.732C155.294 186.58 156.019 187.276 156.903 187.276H174.579C174.829 187.319 175.055 187.493 175.055 187.733Z" fill="#156468"/>
<path d="M172.789 183.144H161.775V183.209H172.789V183.144Z" fill="#373133"/>
<path d="M168.098 183.144L168.914 186.667L169.752 185.384V183.405L168.098 183.144Z" fill="#38B0A9"/>
<path d="M172.177 184.057V186.667L170.568 185.514L168.891 186.667V184.057C168.891 183.427 168.098 183.144 168.098 183.144H171.633C172.177 183.296 172.177 183.97 172.177 184.057Z" fill="#6D68E0"/>
<path d="M172.177 184.058H168.914V184.036C168.914 183.405 168.12 183.122 168.12 183.122H171.656C172.177 183.296 172.177 183.971 172.177 184.058Z" fill="#5A5ABA"/>
<path d="M132.835 174.662C132.835 174.662 134.15 178.098 132.835 180.686H158.738V174.662H132.835Z" fill="#D0F3F1"/>
<path d="M176.574 176.575V178.837C176.574 180.099 175.508 181.121 174.194 181.121H132.881C132.677 181.121 132.518 180.969 132.518 180.773V180.751C132.518 180.555 132.677 180.403 132.881 180.403H156.359C157.288 180.403 158.059 179.664 158.059 178.772V176.662C158.059 175.771 157.288 175.031 156.359 175.031H132.881C132.768 175.031 132.677 174.988 132.609 174.922C132.541 174.857 132.496 174.748 132.496 174.64C132.518 174.444 132.677 174.313 132.881 174.313H174.194C175.508 174.292 176.574 175.314 176.574 176.575Z" fill="#F1884F"/>
<path d="M159.124 176.358V179.076C159.124 180.207 158.172 181.121 156.993 181.121H132.904C132.7 181.121 132.541 180.969 132.541 180.773V180.751C132.541 180.555 132.7 180.403 132.904 180.403H156.382C157.311 180.403 158.081 179.664 158.081 178.772V176.662C158.081 175.771 157.311 175.031 156.382 175.031H132.904C132.79 175.031 132.7 174.988 132.632 174.922C132.564 174.857 132.518 174.748 132.518 174.64C132.541 174.444 132.7 174.313 132.904 174.313H156.993C158.172 174.292 159.124 175.227 159.124 176.358Z" fill="#D37146"/>
<path d="M147.611 178.685H136.597V178.75H147.611V178.685Z" fill="#373133"/>
<path d="M145.028 178.663H143.623V180.382H145.028V178.663Z" fill="#38B0A9"/>
<path d="M144.212 180.164V185.623L142.671 184.296L141.198 185.623V180.382L144.212 180.164Z" fill="#A82329"/>
<path d="M145.028 178.663H142.036C142.036 178.663 142.036 179.947 141.198 180.382H144.189C144.189 180.382 145.028 180.164 145.028 178.663Z" fill="#EE504F"/>
<path d="M168.732 163.157C168.732 163.157 167.713 165.919 168.732 168.964H142.761V163.266L168.732 163.157Z" fill="#D0F3F1"/>
<path d="M143.963 162.352H168.778C169.072 162.352 169.299 162.569 169.299 162.852C169.299 163.135 169.072 163.352 168.778 163.352H144.212C143.509 163.352 142.92 163.896 142.92 164.592V167.484C142.92 168.159 143.487 168.724 144.212 168.724H168.778C169.072 168.724 169.299 168.942 169.299 169.224V169.268C169.299 169.551 169.072 169.768 168.778 169.768H143.963C142.943 169.768 142.104 168.963 142.104 167.985V164.179C142.104 163.156 142.943 162.352 143.963 162.352Z" fill="#6D68E0"/>
<path d="M165.424 167.006H154.41V167.071H165.424V167.006Z" fill="#373133"/>
<path d="M161.843 167.006H160.688V168.702H161.843V167.006Z" fill="#38B0A9"/>
<path d="M161.48 168.506V172.943L162.863 171.617L164.268 172.943V168.724L161.48 168.506Z" fill="#156468"/>
<path d="M160.688 167.006H163.43C163.43 167.006 163.43 168.289 164.268 168.702H161.526C161.526 168.724 160.688 168.506 160.688 167.006Z" fill="#197A83"/>
<path d="M50.3222 166.201C50.3222 166.201 48.2373 194.954 84.4289 190.147L86.5138 194.932C86.5138 194.932 96.8025 176.054 79.8511 172.965C76.4744 172.356 66.1178 172.574 66.1178 172.574L50.3222 166.201Z" fill="#5CC2AD"/>
<path d="M55.7386 219.704C55.7386 219.704 51.5688 222.097 44.0902 232.471L41.1667 226.882L51.1608 216.507L55.7386 219.704Z" fill="black"/>
<path d="M44.0901 232.471C44.0901 232.471 35.7731 224.076 40.3509 216.507C40.3509 216.507 44.5207 209.721 51.9992 210.526C51.9992 210.526 64.894 196.954 80.7122 205.328C80.7122 205.328 84.0436 223.293 52.4299 221.705C52.4072 221.683 42.0052 221.683 44.0901 232.471Z" fill="#5CC2AD"/>
<path d="M43.7502 232.536C42.0052 225.011 44.2714 219.335 46.4923 215.92C48.8945 212.223 51.6593 210.309 51.7953 210.243L52.1805 210.787C52.1579 210.809 49.3931 212.701 47.0588 216.311C44.9286 219.617 42.7303 225.12 44.4074 232.406L43.7502 232.536Z" fill="#17311D"/>
<path d="M96.3038 209.526C96.3038 209.526 99.2272 200.347 108.36 201.13C108.36 201.13 113.391 194.062 122.932 200.326C126.263 202.522 129.164 205.11 127.918 215.093C127.918 215.093 124.79 210.113 116.677 209.895C111.17 209.786 96.3038 209.526 96.3038 209.526Z" fill="#5CC2AD"/>
<path d="M127.6 215.202C124.949 207.59 119.827 204.284 115.975 202.848C111.805 201.304 108.247 201.543 108.201 201.543L108.156 200.891C108.315 200.869 111.918 200.63 116.224 202.218C120.19 203.697 125.515 207.111 128.235 214.963L127.6 215.202Z" fill="#17311D"/>
<path d="M88.1907 228.491H74.4574C71.534 228.491 68.9505 229.905 67.2281 231.188C65.7551 232.275 64.894 233.276 64.894 233.276C64.622 230.035 66.0497 226.99 68.0213 224.859C68.9731 223.837 70.061 223.032 71.1261 222.51C84.0662 216.29 88.1907 228.491 88.1907 228.491Z" fill="#197A83"/>
<path d="M82.7745 228.512C81.1881 220.618 74.7747 221.357 74.7294 221.379L74.6614 220.944C74.7294 220.944 81.5507 220.139 83.2277 228.425L82.7745 228.512Z" fill="#020403"/>
<path d="M83.3265 227.3L82.2087 227.478L85.9959 249.364L87.1137 249.185L83.3265 227.3Z" fill="#22452A"/>
<path d="M90.0038 249.718L88.8707 249.566C90.661 237.582 90.2985 230.796 89.7092 225.751C88.6894 217.007 85.7887 212.07 83.5224 209.439C81.0976 206.611 78.8767 205.85 78.854 205.828L79.2393 204.806C79.3299 204.85 81.7094 205.654 84.3382 208.677C86.7178 211.418 89.7772 216.572 90.8424 225.62C91.4316 230.753 91.7941 237.604 90.0038 249.718Z" fill="#5CC2AD"/>
<path d="M89.9131 226.62C88.2815 206.415 85.3808 190.19 85.3354 190.038L86.4459 189.842C86.4685 189.995 89.3919 206.263 91.0236 226.533L89.9131 226.62Z" fill="#5CC2AD"/>
<path d="M95.1934 250.762L94.0829 250.544C101.063 219.03 101.154 207.242 101.154 207.133H102.287C102.264 207.242 102.196 219.117 95.1934 250.762Z" fill="#5CC2AD"/>
<path d="M86.4004 194.801C86.3778 194.671 84.2248 181.752 74.9333 177.489C72.3952 176.315 65.0073 172.726 64.9393 172.704L65.2566 172.117C65.3246 172.16 72.7124 175.749 75.228 176.902C84.8367 181.317 87.035 194.584 87.0576 194.714L86.4004 194.801Z" fill="#17311D"/>
<path d="M67.2281 231.188C65.7551 232.275 64.894 233.276 64.894 233.276C64.622 230.035 66.0497 226.99 68.0213 224.859C67.6134 226.381 67.0468 228.926 67.2281 231.188Z" fill="#020403"/>
<path d="M70.5142 247.456H110.445L104.621 286.975H76.3384L70.5142 247.456Z" fill="#197A83"/>
<path d="M136.552 190.778L109.017 286.953H103.737L131.294 190.778H136.552Z" fill="#38B0A9"/>
<path d="M131.294 190.778L158.829 286.953H164.109L136.552 190.778H131.294Z" fill="#38B0A9"/>
<path d="M298.474 190.778H249.387V286.953H298.474V190.778Z" fill="#38B0A9"/>
<path d="M153.843 190.778L181.401 286.953H186.658L159.124 190.778H153.843Z" fill="#38B0A9"/>
<path d="M155.906 190.778L183.44 286.953H188.72L161.163 190.778H155.906Z" fill="#D0F3F1"/>
<path d="M159.124 190.778L131.566 286.953H126.309L153.843 190.778H159.124Z" fill="#38B0A9"/>
<path d="M161.163 190.778L133.629 286.953H128.348L155.906 190.778H161.163Z" fill="#D0F3F1"/>
<path d="M143.305 188.255V193.301H297.431V286.953H341.69V188.255H143.305Z" fill="#D0F3F1"/>
<path d="M150.036 188.255H115.748V193.323H150.036V188.255Z" fill="#38B0A9"/>
<path d="M300.672 195.563V284.147H339.356V195.563H300.672ZM338.178 283.017H301.85V266.574H313.567V269.532H327.594V266.574H338.2V283.017H338.178ZM338.178 265.443H301.85V248H313.567V250.958H327.594V248H338.2V265.443H338.178ZM338.178 246.891H301.85V230.949H313.567V233.798H327.594V230.949H338.2V246.891H338.178ZM338.178 229.818H301.85V213.984H313.567V216.942H327.594V213.984H338.2V229.818H338.178ZM338.178 212.853H301.85V196.672H313.567V199.478H327.594V196.672H338.2V212.853H338.178Z" fill="#38B0A9"/>
<path d="M200.391 170.725L197.672 188.342H211.043L213.762 170.725H200.391Z" fill="#373133"/>
<path d="M169.911 131.772L172.653 170.529C172.766 172.182 174.194 173.465 175.916 173.465H239.076C240.98 173.465 242.475 171.921 242.339 170.116L239.597 131.359C239.484 129.706 238.056 128.423 236.334 128.423H173.174C171.293 128.423 169.798 129.967 169.911 131.772Z" fill="#373133"/>
<path d="M202.884 170.725L200.165 188.342H213.536L216.255 170.725H202.884Z" fill="#6D68E0"/>
<path d="M241.818 173.487H178.658C176.936 173.487 175.508 172.204 175.395 170.551L175.055 165.831L172.63 131.794C172.494 129.967 174.013 128.423 175.894 128.423H239.053C240.775 128.423 242.203 129.706 242.316 131.359L244.764 165.831L245.059 170.116C245.217 171.943 243.722 173.487 241.818 173.487Z" fill="#6D68E0"/>
<path d="M178.455 165.592L176.279 134.578C176.166 133.012 177.525 131.685 179.225 131.685H236.311C237.875 131.685 239.167 132.794 239.257 134.208L241.455 165.592H178.455Z" fill="white"/>
<path d="M195.066 185.732H179.996V188.342H195.066V185.732Z" fill="#373133"/>
<path d="M234.498 185.732H194.273V188.342H234.498V185.732Z" fill="#6D68E0"/>
<path d="M191.531 169.333H182.149V175.205C182.149 175.205 182.149 177.511 184.551 177.728H194.16C194.16 177.728 192.075 177.62 191.644 175.314L191.531 169.333Z" fill="#FC2B45"/>
<path d="M203.088 166.941H193.706V172.813C193.706 172.813 193.706 175.118 196.108 175.336H205.717C205.717 175.336 203.632 175.227 203.202 172.922L203.088 166.941Z" fill="#FD9E28"/>
<path d="M190.464 131.634L188.88 131.731L191.144 165.657L192.727 165.56L190.464 131.634Z" fill="#D0F3F1"/>
<path d="M223.325 131.634L221.742 131.732L224.001 165.658L225.584 165.56L223.325 131.634Z" fill="#D0F3F1"/>
<path d="M193.706 137.992L194.386 147.562H219.768L219.088 137.992H193.706Z" fill="#D0F3F1"/>
<path d="M225.66 138.34L225.954 142.342H236.538L236.243 138.34H225.66Z" fill="#D0F3F1"/>
<path d="M226.34 146.823L226.634 150.824H237.218L236.923 146.823H226.34Z" fill="#D0F3F1"/>
<path d="M227.02 155.305L227.314 159.306H237.898L237.603 155.305H227.02Z" fill="#D0F3F1"/>
<path d="M194.613 151.912L195.293 161.481H220.674L219.994 151.912H194.613Z" fill="#D0F3F1"/>
<path d="M202.998 134.404H193.706V135.491H202.998V134.404Z" fill="#D0F3F1"/>
<path d="M187.361 134.512H178.069V135.6H187.361V134.512Z" fill="#D0F3F1"/>
<path d="M187.587 137.557H178.296V138.645H187.587V137.557Z" fill="#D0F3F1"/>
<path d="M187.814 140.602H178.523V141.69H187.814V140.602Z" fill="#D0F3F1"/>
<path d="M188.041 143.647H178.749V144.736H188.041V143.647Z" fill="#D0F3F1"/>
<path d="M188.267 146.692H178.976V147.781H188.267V146.692Z" fill="#D0F3F1"/>
<path d="M231.325 134.73H225.433V135.818H231.325V134.73Z" fill="#D0F3F1"/>
<path d="M279.347 145.061L279.369 138.775C279.369 138.775 268.627 141.429 273.726 121.963C273.726 121.963 280.593 115.047 289.137 121.963L290.043 136.1L291.267 144.43L279.347 145.061Z" fill="#FCBB9D"/>
<path d="M294.69 122.05C295.573 114.134 291.018 115.069 291.018 115.069C286.44 108.783 284.129 112.524 284.129 112.524C280.276 109.218 279.075 112.415 279.075 112.415C275.291 110.915 274.611 114.134 274.611 114.134C271.053 113.481 271.257 116.7 271.257 116.7C269.92 116.918 269.648 118.592 269.693 119.267C270.01 123.573 273.206 123.899 274.973 123.747L275.381 128.989C275.427 129.489 275.925 129.815 276.424 129.663C276.718 129.576 276.922 129.337 276.99 129.054C277.013 128.989 277.013 128.923 277.013 128.88C277.398 127.009 280.548 125.574 281.002 128.88C281.002 128.88 281.341 133.143 279.007 133.23C279.007 133.23 281.523 138.319 287.506 137.253C288.503 137.079 295.052 135.492 294.531 124.552C294.735 123.094 294.69 122.05 294.69 122.05Z" fill="#373133"/>
<path d="M269.625 171.921L260.877 180.142C260.084 180.882 259.087 181.382 257.999 181.578L229.626 186.819L222.147 187.254C222.147 187.254 223.507 185.514 225.32 185.079H220.334L215.371 187.146C214.782 187.385 214.102 187.167 213.808 186.624C213.536 186.123 213.672 185.493 214.147 185.123L219.428 181.273C220.289 180.643 221.377 180.338 222.464 180.447L229.49 181.078L232.073 181.969L254.894 171.921L265.659 161.59L269.625 171.921Z" fill="#CC8772"/>
<path d="M219.541 267.705L214.986 277.427L213.06 281.537H204.539L206.714 275.469L209.456 267.835L219.541 267.705Z" fill="#FCBB9D"/>
<path d="M214.374 278.754C213.626 279.493 210.589 281.951 205.581 278.602C205.536 278.58 205.49 278.558 205.422 278.602L191.576 285.713C190.919 286.039 191.168 286.996 191.916 286.996H214.51C215.552 286.996 216.323 286.061 216.096 285.104L214.623 278.862C214.601 278.71 214.465 278.667 214.374 278.754Z" fill="#4F216C"/>
<path d="M253.081 267.705L249.931 277.492L248.639 281.538H240.118L241.274 275.904L242.996 267.618L253.081 267.705Z" fill="#FCBB9D"/>
<path d="M253.081 267.705L249.931 277.492L241.274 275.904L242.996 267.618L253.081 267.705Z" fill="#E6A68A"/>
<path d="M249.5 278.754C248.753 279.493 245.716 281.951 240.707 278.602C240.662 278.58 240.617 278.558 240.549 278.602L226.702 285.713C226.045 286.039 226.294 286.996 227.042 286.996H249.636C250.679 286.996 251.449 286.061 251.223 285.104L249.75 278.862C249.727 278.71 249.591 278.667 249.5 278.754Z" fill="#4F216C"/>
<path d="M250.248 211.831L239.937 274.36L254.894 275.23L272.004 211.831H250.248Z" fill="#311547"/>
<path d="M219.541 267.705L214.986 277.427L206.714 275.47L209.456 267.835L219.541 267.705Z" fill="#E6A68A"/>
<path d="M263.959 173.444L258.792 177.62L256.254 179.664C255.642 180.164 254.917 180.49 254.146 180.664L219.314 188.233C216.55 188.69 213.739 187.581 211.723 186.45C211.043 186.341 210.385 186.254 209.751 186.167C208.686 188.32 205.717 189.125 205.717 189.125L206.986 184.71C207.167 184.101 207.575 183.601 208.142 183.296L212.606 180.86C213.717 180.251 215.054 180.229 216.187 180.751L217.819 181.513L248.662 171.334L253.308 166.419L255.846 163.722L263.959 173.444Z" fill="#FCBB9D"/>
<path d="M263.959 173.444L258.792 177.62L253.308 166.462L255.846 163.765L263.959 173.444Z" fill="#E6A68A"/>
<path d="M269.692 195.302L267.2 198.346L243.291 201.109C237.217 201.805 232.073 205.719 229.966 211.222L206.17 273.055L222.26 275.448L247.461 223.315C247.461 223.315 308.717 232.863 301.918 202.24L269.692 195.302Z" fill="#4F216C"/>
<path d="M274.837 143.517C274.678 143.56 269.421 145.691 266.474 149.432C261.443 155.827 254.078 165.114 254.078 165.114L262.191 175.619L265.885 172.095L265.432 190.147L262.826 198.455C262.826 198.455 267.086 201.587 270.758 203.24C285.261 209.765 304.751 207.155 304.751 207.155L302.394 163.591C302.394 163.591 303.006 148.214 296.593 143.43C296.593 143.43 288.865 139.623 274.837 143.517Z" fill="#F1884F"/>
<path d="M269.437 169.312L261.956 175.406L262.396 175.903L269.877 169.809L269.437 169.312Z" fill="#373133"/>
<path d="M280.389 245.238H276.469V271.185H280.389V245.238Z" fill="#D0F3F1"/>
<path d="M273.273 231.884V242.758C273.273 245.499 275.585 247.717 278.44 247.717C281.296 247.717 283.607 245.499 283.607 242.758V231.884H273.273Z" fill="#D0F3F1"/>
<path d="M262.237 228.382V229.252C262.237 231.275 263.936 232.906 266.044 232.906H296.026C298.134 232.906 299.833 231.275 299.833 229.252V228.382H262.237Z" fill="#D0F3F1"/>
<path d="M276.377 223.293V229.839H304.841C306.722 229.839 308.24 228.382 308.24 226.577C308.24 224.772 306.722 223.314 304.841 223.314H276.377V223.293Z" fill="#D34848"/>
<path d="M252.129 226.555C252.129 228.36 253.647 229.818 255.528 229.818H275.788C277.669 229.818 279.188 228.36 279.188 226.555C279.188 224.75 277.669 223.293 275.788 223.293H255.528C253.647 223.293 252.129 224.75 252.129 226.555Z" fill="#EE504F"/>
<path d="M252.152 277.579L271.03 272.707V272.642C271.03 268.749 274.316 265.595 278.372 265.595C282.429 265.595 285.715 268.749 285.715 272.642V272.99L303.482 277.557C304.592 277.84 305.272 278.905 305.023 279.993C304.774 281.08 303.663 281.776 302.53 281.559L284.151 278.166H278.236H277.443H271.506L253.127 281.559C251.993 281.776 250.883 281.08 250.634 279.993C250.384 278.927 251.042 277.862 252.152 277.579Z" fill="#D0F3F1"/>
<path d="M299.131 286.975C301.021 286.975 302.553 285.504 302.553 283.691C302.553 281.877 301.021 280.406 299.131 280.406C297.241 280.406 295.709 281.877 295.709 283.691C295.709 285.504 297.241 286.975 299.131 286.975Z" fill="#373133"/>
<path d="M299.131 285.517C300.182 285.517 301.035 284.699 301.035 283.69C301.035 282.681 300.182 281.864 299.131 281.864C298.08 281.864 297.227 282.681 297.227 283.69C297.227 284.699 298.08 285.517 299.131 285.517Z" fill="#38B0A9"/>
<path d="M256.594 286.975C258.484 286.975 260.016 285.504 260.016 283.691C260.016 281.877 258.484 280.406 256.594 280.406C254.704 280.406 253.172 281.877 253.172 283.691C253.172 285.504 254.704 286.975 256.594 286.975Z" fill="#373133"/>
<path d="M256.594 285.517C257.645 285.517 258.498 284.699 258.498 283.69C258.498 282.681 257.645 281.864 256.594 281.864C255.543 281.864 254.69 282.681 254.69 283.69C254.69 284.699 255.543 285.517 256.594 285.517Z" fill="#38B0A9"/>
<path d="M109.697 74.8108H166.738C167.894 74.8108 168.846 75.7243 168.846 76.8335V117.048C168.846 118.157 167.894 119.071 166.738 119.071H109.697C108.542 119.071 107.59 118.157 107.59 117.048V76.8335C107.59 75.7243 108.542 74.8108 109.697 74.8108Z" fill="#D0F3F1"/>
<path d="M147.135 84.8806H110.604V104.107H147.135V84.8806Z" fill="white"/>
<path d="M155.248 78.4211H117.108V80.7483H155.248V78.4211Z" fill="#38B0A9"/>
<path d="M160.483 80.7917C161.172 80.7917 161.73 80.2563 161.73 79.5957C161.73 78.9351 161.172 78.3997 160.483 78.3997C159.795 78.3997 159.237 78.9351 159.237 79.5957C159.237 80.2563 159.795 80.7917 160.483 80.7917Z" fill="#38B0A9"/>
<path d="M163.769 80.7917C164.458 80.7917 165.016 80.2563 165.016 79.5957C165.016 78.9351 164.458 78.3997 163.769 78.3997C163.081 78.3997 162.523 78.9351 162.523 79.5957C162.523 80.2563 163.081 80.7917 163.769 80.7917Z" fill="#38B0A9"/>
<path d="M157.673 84.8374H149.311V91.21H157.673V84.8374Z" fill="#38B0A9"/>
<path d="M164.268 84.8374H159.237V85.9683H164.268V84.8374Z" fill="#38B0A9"/>
<path d="M166.738 87.4036H159.237V88.5347H166.738V87.4036Z" fill="#38B0A9"/>
<path d="M164.268 93.5371H159.237V94.6692H164.268V93.5371Z" fill="#38B0A9"/>
<path d="M166.738 96.1033H159.237V97.2344H166.738V96.1033Z" fill="#38B0A9"/>
<path d="M164.268 102.084H159.237V103.215H164.268V102.084Z" fill="#38B0A9"/>
<path d="M166.738 104.651H159.237V105.783H166.738V104.651Z" fill="#38B0A9"/>
<path d="M164.268 110.632H159.237V111.763H164.268V110.632Z" fill="#38B0A9"/>
<path d="M166.738 113.198H159.237V114.329H166.738V113.198Z" fill="#38B0A9"/>
<path d="M157.673 93.4719H149.311V99.8442H157.673V93.4719Z" fill="#38B0A9"/>
<path d="M157.673 102.128H149.311V108.501H157.673V102.128Z" fill="#38B0A9"/>
<path d="M157.673 110.697H149.311V117.07H157.673V110.697Z" fill="#38B0A9"/>
<path d="M135.578 105.934H110.355V107.979H135.578V105.934Z" fill="#38B0A9"/>
<path d="M113.074 115.025C114.576 115.025 115.793 113.857 115.793 112.416C115.793 110.974 114.576 109.806 113.074 109.806C111.572 109.806 110.355 110.974 110.355 112.416C110.355 113.857 111.572 115.025 113.074 115.025Z" fill="#38B0A9"/>
<path d="M127.17 109.827H118.105V111.719H127.17V109.827Z" fill="#38B0A9"/>
<path d="M125.765 90.4922V98.4744L131.997 94.4724L125.765 90.4922Z" fill="#E8315D"/>
<path d="M115.023 78.4211H110.581V80.8137H115.023V78.4211Z" fill="#38B0A9"/>
<path d="M203.156 98.1912H184.301C183.871 98.1912 183.508 98.5392 183.508 98.9524V112.72C183.508 113.133 183.871 113.481 184.301 113.481H195.542L200.89 117.983V113.481H203.134C203.564 113.481 203.927 113.133 203.927 112.72V98.9524C203.949 98.5392 203.587 98.1912 203.156 98.1912Z" fill="#D0F3F1"/>
<path d="M191.621 102.019V109.501L197.717 105.76L191.621 102.019Z" fill="#E8315D"/>
<path d="M253.104 88.165C253.104 87.5125 252.537 86.9688 251.857 86.9688H225.728C225.048 86.9688 224.481 87.5125 224.481 88.165V107.913C224.481 108.566 225.048 109.109 225.728 109.109H228.357V114.982L233.705 109.109H251.857C252.537 109.109 253.104 108.566 253.104 107.913V88.165Z" fill="#D0F3F1"/>
<path d="M248.979 93.1238H229.036V94.8638H248.979V93.1238Z" fill="#38B0A9"/>
<path d="M249.002 96.8425H229.059V98.5825H249.002V96.8425Z" fill="#38B0A9"/>
<path d="M249.002 100.584H229.059V102.324H249.002V100.584Z" fill="#38B0A9"/>
<path d="M77.2224 130.663V137.862C77.2224 138.753 77.9703 139.449 78.8768 139.449H137.368C138.297 139.449 139.022 138.732 139.022 137.862V130.663C139.022 129.771 138.274 129.075 137.368 129.075H78.8768C77.9703 129.075 77.2224 129.793 77.2224 130.663Z" fill="#D0F3F1"/>
<path d="M77.2224 143.973V151.172C77.2224 152.064 77.9703 152.76 78.8768 152.76H137.368C138.297 152.76 139.022 152.042 139.022 151.172V143.973C139.022 143.081 138.274 142.385 137.368 142.385H78.8768C77.9703 142.385 77.2224 143.103 77.2224 143.973Z" fill="#D0F3F1"/>
<path d="M119.034 133.708H80.735V134.817H119.034V133.708Z" fill="#38B0A9"/>
<path d="M83.3185 147.584L84.8596 148.41L84.3383 149.302L82.7519 148.41L82.7746 150.085H81.7321L81.7548 148.41L80.1911 149.28L79.6472 148.388L81.211 147.562L79.6472 146.735L80.1911 145.844L81.7548 146.735L81.7321 145.061H82.7746L82.7519 146.735L84.3383 145.844L84.8596 146.735L83.3185 147.584Z" fill="#38B0A9"/>
<path d="M91.8393 147.584L93.3804 148.41L92.8591 149.302L91.2728 148.41L91.2955 150.085H90.253L90.2757 148.41L88.712 149.28L88.1681 148.388L89.7318 147.562L88.1681 146.735L88.712 145.844L90.2757 146.735L90.253 145.061H91.2955L91.2728 146.735L92.8591 145.844L93.3804 146.735L91.8393 147.584Z" fill="#38B0A9"/>
<path d="M100.361 147.584L101.901 148.41L101.38 149.302L99.794 148.41L99.8166 150.085H98.7742L98.7968 148.41L97.2331 149.28L96.6892 148.388L98.2529 147.562L96.6892 146.735L97.2331 145.844L98.7968 146.735L98.7742 145.061H99.8166L99.794 146.735L101.38 145.844L101.901 146.735L100.361 147.584Z" fill="#38B0A9"/>
<path d="M108.881 147.584L110.422 148.41L109.901 149.302L108.315 148.41L108.338 150.085H107.295L107.318 148.41L105.754 149.28L105.21 148.388L106.774 147.562L105.21 146.735L105.754 145.844L107.318 146.735L107.295 145.061H108.338L108.315 146.735L109.901 145.844L110.422 146.735L108.881 147.584Z" fill="#38B0A9"/>
<path d="M117.493 147.584L119.034 148.41L118.513 149.302L116.926 148.41L116.949 150.085H115.907L115.929 148.41L114.366 149.28L113.822 148.388L115.385 147.562L113.822 146.735L114.366 145.844L115.929 146.735L115.907 145.061H116.949L116.926 146.735L118.513 145.844L119.034 146.735L117.493 147.584Z" fill="#38B0A9"/>
<path d="M357.101 286.866H50.2543V287.955H357.101V286.866Z" fill="#373133"/>
<defs>
<filter id="filter0_d" x="13.1539" y="90.6881" width="347.481" height="289.422" filterUnits="userSpaceOnUse" color-interpolation-filters="sRGB">
<feFlood flood-opacity="0" result="BackgroundImageFix"/>
<feColorMatrix in="SourceAlpha" type="matrix" values="0 0 0 0 0 0 0 0 0 0 0 0 0 0 0 0 0 0 127 0" result="hardAlpha"/>
<feOffset dx="-5" dy="5"/>
<feGaussianBlur stdDeviation="5"/>
<feColorMatrix type="matrix" values="0 0 0 0 0.937255 0 0 0 0 0.345098 0 0 0 0 0.345098 0 0 0 0.2 0"/>
<feBlend mode="normal" in2="BackgroundImageFix" result="effect1_dropShadow"/>
<feBlend mode="normal" in="SourceGraphic" in2="effect1_dropShadow" result="shape"/>
</filter>
</defs>
</svg>
